<svg xmlns="http://www.w3.org/2000/svg" viewBox="0 0 256 256">
  <path stroke-width="12" fill-rule="evenodd" d="M 37.056 80.432 L 224.577 80.432 C 249.106 80.432 268.99 101.062 268.99 126.511 C 268.99 151.958 249.106 172.589 224.577 172.589 L 37.056 172.589 C 12.527 172.589 -7.358 151.958 -7.358 126.511 C -7.358 101.062 12.527 80.432 37.056 80.432 Z M 39.464 126.607 C 39.464 140.401 53.855 149.023 65.371 142.127 C 70.715 138.925 74.007 133.009 74.007 126.607 C 74.007 112.812 59.613 104.191 48.098 111.089 C 42.755 114.29 39.464 120.205 39.464 126.607 Z M 113.545 126.511 C 113.545 140.306 127.937 148.927 139.452 142.029 C 144.797 138.829 148.087 132.913 148.087 126.511 C 148.087 112.717 133.694 104.094 122.181 110.992 C 116.837 114.193 113.545 120.109 113.545 126.511 Z M 186.877 125.99 C 186.877 139.785 201.269 148.406 212.784 141.508 C 218.129 138.307 221.42 132.392 221.42 125.99 C 221.42 112.196 207.026 103.573 195.512 110.471 C 190.169 113.672 186.877 119.588 186.877 125.99 Z" style="transform-box: fill-box; transform-origin: 50% 50%; fill: white;" transform="matrix(0.731142, -0.682226, 0.682226, 0.731142, 0.000001, 0.000002)"></path>
</svg>